<?xml version="1.0" standalone="no"?>
<!DOCTYPE svg PUBLIC "-//W3C//DTD SVG 1.1//EN" "http://www.w3.org/Graphics/SVG/1.1/DTD/svg11.dtd">
<svg version="1.1" xmlns="http://www.w3.org/2000/svg" viewBox="0 0 351.2734375 302.478515625" width="702.546875" height="604.95703125"><!-- svg-source:excalidraw --><metadata></metadata><defs><style class="style-fonts">
      </style></defs><g stroke-linecap="round" transform="translate(121.244140625 10) rotate(0 57.919921875 53.806640625)"><path d="M66.81 1.03 C75.92 1.48, 87.28 6.44, 94.8 11.97 C102.31 17.5, 108.65 25.9, 111.9 34.19 C115.16 42.48, 115.73 52.83, 114.35 61.71 C112.97 70.58, 109.62 80.47, 103.62 87.46 C97.62 94.46, 87.45 100.58, 78.34 103.68 C69.23 106.78, 58.41 107.45, 48.98 106.05 C39.55 104.66, 29.24 100.68, 21.77 95.31 C14.31 89.93, 7.72 82.17, 4.2 73.8 C0.67 65.42, -0.79 53.92, 0.63 45.04 C2.04 36.16, 6.68 27.35, 12.68 20.51 C18.68 13.66, 25.99 7.06, 36.63 3.98 C47.28 0.9, 68.75 1.63, 76.55 2.02 C84.35 2.41, 83.78 5.52, 83.43 6.3 M36.24 4.11 C44.62 0.16, 57.6 -2.01, 67.39 -0.53 C77.17 0.95, 87.61 7.08, 94.94 12.99 C102.26 18.91, 107.98 26.61, 111.34 34.98 C114.69 43.36, 116.38 54.72, 115.07 63.25 C113.76 71.77, 109.39 79.18, 103.49 86.12 C97.59 93.07, 88.74 101.24, 79.67 104.92 C70.6 108.6, 58.78 109.61, 49.05 108.18 C39.32 106.74, 29.01 102.29, 21.29 96.3 C13.57 90.3, 6.13 80.59, 2.73 72.21 C-0.66 63.83, -0.61 54.58, 0.93 46.01 C2.46 37.44, 6.15 27.61, 11.95 20.79 C17.75 13.97, 31.71 7.61, 35.72 5.09 C39.74 2.56, 35.74 5.16, 36.06 5.63" stroke="none" stroke-width="0" fill="#ffec99"></path><path d="M35.54 3.62 C43.53 -0.46, 54.91 -0.81, 64.48 0.42 C74.04 1.66, 85.32 5.81, 92.91 11.01 C100.5 16.22, 106.24 23.64, 110.03 31.63 C113.81 39.62, 116.45 49.89, 115.63 58.96 C114.8 68.03, 110.8 78.76, 105.08 86.05 C99.35 93.34, 90.21 99.09, 81.27 102.69 C72.33 106.29, 61.13 108.71, 51.45 107.63 C41.76 106.56, 30.77 101.65, 23.16 96.23 C15.55 90.8, 9.62 83.16, 5.76 75.08 C1.91 66.99, -0.75 56.66, 0.03 47.7 C0.81 38.74, 3.39 28.83, 10.44 21.34 C17.48 13.86, 35.46 6.19, 42.31 2.79 C49.16 -0.61, 51.32 0.24, 51.51 0.94 M43.4 1.69 C51.97 -1.07, 64.76 -0.04, 73.94 2.67 C83.12 5.38, 91.75 11.61, 98.48 17.93 C105.22 24.25, 112.06 31.96, 114.33 40.6 C116.59 49.24, 114.76 60.92, 112.09 69.76 C109.42 78.61, 105 87.61, 98.32 93.69 C91.64 99.77, 81.39 104.36, 72.01 106.25 C62.63 108.13, 51.23 107.44, 42.03 105.02 C32.84 102.61, 23.37 98.32, 16.84 91.78 C10.32 85.25, 5.14 74.88, 2.86 65.81 C0.59 56.73, 0.81 45.59, 3.2 37.33 C5.59 29.06, 10.39 22.36, 17.2 16.19 C24.01 10.02, 39.29 2.38, 44.04 0.32 C48.8 -1.74, 45.27 2.63, 45.71 3.84" stroke="#ffd43b" stroke-width="4" fill="none"></path></g><g stroke-linecap="round" transform="translate(225.43359375 182.646484375) rotate(0 57.919921875 53.806640625)"><path d="M70.59 0.62 C79.73 1.68, 90.44 8.02, 97.43 13.99 C104.41 19.97, 109.56 27.9, 112.49 36.48 C115.42 45.05, 116.91 56.55, 115.01 65.47 C113.1 74.39, 107.68 83.39, 101.06 89.99 C94.44 96.58, 84.54 102.41, 75.3 105.04 C66.05 107.67, 55 107.79, 45.59 105.77 C36.18 103.76, 26.04 99.01, 18.86 92.94 C11.68 86.88, 5.29 77.63, 2.51 69.38 C-0.27 61.13, 0.24 52.05, 2.2 43.45 C4.15 34.84, 7.75 24.41, 14.24 17.75 C20.73 11.1, 30.87 6.05, 41.15 3.52 C51.44 0.99, 69.28 2.29, 75.95 2.59 C82.61 2.88, 81.44 4.53, 81.16 5.26 M38.7 3.81 C46.99 0.61, 60.14 0.26, 69.78 1.73 C79.41 3.21, 89.15 6.99, 96.53 12.65 C103.9 18.31, 110.89 26.99, 114.01 35.69 C117.13 44.39, 117.26 55.78, 115.26 64.86 C113.26 73.94, 108.49 83.48, 102.01 90.18 C95.54 96.89, 85.65 102.19, 76.41 105.11 C67.17 108.04, 56.09 109.37, 46.58 107.75 C37.08 106.13, 26.85 101.67, 19.41 95.39 C11.96 89.12, 5.16 78.79, 1.92 70.07 C-1.32 61.36, -2.15 51.81, -0.04 43.09 C2.07 34.38, 7.99 24.64, 14.56 17.78 C21.13 10.93, 34.86 4.07, 39.37 1.97 C43.89 -0.14, 41.12 3.95, 41.66 5.15" stroke="none" stroke-width="0" fill="#ffec99"></path><path d="M82.96 5.98 C91.37 9.12, 100.28 16.48, 105.63 23.88 C110.98 31.27, 114.5 41.35, 115.07 50.36 C115.64 59.36, 113.37 69.83, 109.03 77.92 C104.7 86, 96.95 93.91, 89.05 98.86 C81.15 103.82, 71.07 107, 61.65 107.64 C52.23 108.27, 41.11 106.71, 32.53 102.69 C23.96 98.68, 15.71 91.21, 10.2 83.53 C4.68 75.86, 0.24 65.47, -0.58 56.65 C-1.4 47.83, 0.84 38.63, 5.28 30.61 C9.73 22.6, 18.07 13.56, 26.1 8.55 C34.14 3.53, 43.48 0.64, 53.48 0.52 C63.49 0.4, 80.38 6.37, 86.13 7.82 C91.88 9.27, 88.37 8.55, 87.99 9.2 M40.29 3.1 C48.79 -0.46, 61 0.27, 70.51 1.89 C80.03 3.51, 90.34 6.92, 97.38 12.81 C104.42 18.71, 109.94 28.8, 112.76 37.27 C115.59 45.74, 116.25 54.96, 114.35 63.66 C112.46 72.36, 107.89 82.62, 101.41 89.46 C94.93 96.3, 84.72 102.08, 75.48 104.69 C66.25 107.29, 55.24 107.09, 46.01 105.1 C36.77 103.11, 27.1 98.68, 20.07 92.77 C13.04 86.85, 6.99 78.08, 3.85 69.62 C0.71 61.16, -0.33 50.53, 1.21 42.01 C2.76 33.49, 6.99 24.78, 13.12 18.48 C19.26 12.19, 33.4 6.56, 38.02 4.23 C42.64 1.91, 40.15 4.15, 40.83 4.55" stroke="#ffd43b" stroke-width="4" fill="none"></path></g><g stroke-linecap="round" transform="translate(10 184.865234375) rotate(0 57.919921875 53.806640625)"><path d="M60.7 0.38 C70.02 0.09, 81.03 3.65, 89.05 8.39 C97.07 13.13, 104.38 20.98, 108.82 28.8 C113.25 36.62, 116.01 46.48, 115.66 55.32 C115.3 64.15, 111.87 74.26, 106.69 81.79 C101.51 89.32, 92.94 96.06, 84.58 100.52 C76.22 104.98, 66.23 108.73, 56.51 108.53 C46.79 108.34, 34.39 104.15, 26.24 99.35 C18.1 94.55, 11.97 87.71, 7.63 79.76 C3.29 71.8, -0.08 60.78, 0.19 51.62 C0.47 42.45, 4.11 32.46, 9.28 24.77 C14.45 17.07, 21.71 9.34, 31.22 5.43 C40.73 1.52, 59.41 1.84, 66.35 1.32 C73.3 0.8, 72.81 1.51, 72.89 2.29 M70.32 -0.29 C79.59 0.8, 89.56 7.19, 96.79 13.41 C104.02 19.63, 110.65 28.53, 113.71 37.05 C116.77 45.57, 117.1 55.6, 115.14 64.53 C113.18 73.45, 108.39 83.64, 101.97 90.59 C95.55 97.55, 86 103.68, 76.61 106.26 C67.21 108.84, 55.3 108.01, 45.61 106.05 C35.91 104.1, 25.55 100.4, 18.43 94.54 C11.31 88.69, 5.83 79.59, 2.86 70.92 C-0.1 62.26, -1.52 51.08, 0.65 42.55 C2.81 34.02, 9.24 26.13, 15.85 19.74 C22.46 13.34, 31.26 7.2, 40.29 4.18 C49.32 1.15, 65.31 1.82, 70.05 1.59 C74.78 1.36, 69.22 2.02, 68.71 2.77" stroke="none" stroke-width="0" fill="#ffec99"></path><path d="M53.86 0.32 C62.92 -0.89, 74.28 2.01, 83.04 6.03 C91.79 10.05, 100.9 16.88, 106.4 24.44 C111.91 32.01, 115.45 42.52, 116.07 51.44 C116.69 60.35, 114.64 70.14, 110.13 77.94 C105.61 85.74, 97.25 93.18, 88.97 98.23 C80.69 103.27, 69.93 107.69, 60.46 108.22 C50.98 108.74, 40.74 105.47, 32.12 101.38 C23.5 97.3, 14.11 90.99, 8.73 83.71 C3.35 76.44, 0.32 66.76, -0.18 57.71 C-0.68 48.66, 1.28 37.55, 5.73 29.41 C10.17 21.28, 17.75 13.69, 26.5 8.88 C35.25 4.06, 51.98 1.68, 58.21 0.52 C64.44 -0.64, 63.77 0.97, 63.89 1.92 M74.14 2.89 C82.9 4.51, 92.74 9.55, 99.41 15.94 C106.08 22.32, 111.97 32.38, 114.15 41.19 C116.33 50, 115.29 60.46, 112.5 68.8 C109.7 77.14, 104.12 85.25, 97.38 91.21 C90.63 97.18, 81.18 102.47, 72.03 104.6 C62.88 106.73, 51.79 106.48, 42.48 104 C33.17 101.52, 23.18 95.94, 16.16 89.73 C9.15 83.52, 2.91 75.02, 0.38 66.76 C-2.14 58.49, -2.1 48.64, 1.01 40.12 C4.11 31.6, 11.67 22.26, 19.01 15.61 C26.35 8.95, 36.02 2.33, 45.06 0.19 C54.09 -1.96, 68.32 2.09, 73.22 2.74 C78.12 3.4, 74.59 3.24, 74.46 4.13" stroke="#ffd43b" stroke-width="4" fill="none"></path></g><g stroke-linecap="round"><g transform="translate(67.81992187499998 177.86530651319902) rotate(0 23.55687816899976 -50.74389829341541)"><path d="M0 0 C-0.88 -31.3, -1.17 -63, 0 -85.22 M0 0 C-0.38 -19.11, 0.13 -39.17, 0 -85.22 M0 -85.22 C-0.48 -95.23, 3.92 -101.49, 16 -101.22 M0 -85.22 C-1.09 -96.29, 4.23 -100.98, 16 -101.22 M16 -101.22 C28.23 -102.1, 39.63 -100.45, 47.89 -101.22 M16 -101.22 C25.75 -100.41, 36.15 -100.62, 47.89 -101.22" stroke="#ffd43b" stroke-width="4" fill="none"></path></g><g transform="translate(67.81992187499998 177.86530651319902) rotate(0 23.55687816899976 -50.74389829341541)"><path d="M25.74 -92.12 C33.43 -94.71, 41.44 -97.88, 47.89 -101.22 M25.74 -92.12 C30.14 -93.42, 35.85 -95.61, 47.89 -101.22" stroke="#ffd43b" stroke-width="4" fill="none"></path></g><g transform="translate(67.81992187499998 177.86530651319902) rotate(0 23.55687816899976 -50.74389829341541)"><path d="M25.07 -108.49 C33.07 -104.93, 41.33 -101.97, 47.89 -101.22 M25.07 -108.49 C29.54 -105.95, 35.4 -104.3, 47.89 -101.22" stroke="#ffd43b" stroke-width="4" fill="none"></path></g></g><mask></mask><g stroke-linecap="round"><g transform="translate(244.08389658475414 63.706640625000006) rotate(0 19.79524824927296 55.82742478637947)"><path d="M0 0 C9.76 -0.09, 19.33 0.9, 23.17 0 M0 0 C8.74 0.93, 14.68 -0.25, 23.17 0 M23.17 0 C33.19 1.17, 39.15 4.88, 39.17 16 M23.17 0 C36.01 -1.67, 41.18 4.06, 39.17 16 M39.17 16 C36.58 37.93, 38.58 57.87, 39.17 111.94 M39.17 16 C39.73 40.8, 39.61 67.31, 39.17 111.94" stroke="#ffd43b" stroke-width="4" fill="none"></path></g><g transform="translate(244.08389658475414 63.706640625000006) rotate(0 19.79524824927296 55.82742478637947)"><path d="M30.82 88.38 C34.7 97.43, 38.55 107.52, 39.17 111.94 M30.82 88.38 C34.62 97.19, 35.56 103.96, 39.17 111.94" stroke="#ffd43b" stroke-width="4" fill="none"></path></g><g transform="translate(244.08389658475414 63.706640625000006) rotate(0 19.79524824927296 55.82742478637947)"><path d="M47.92 88.52 C45.2 97.58, 42.45 107.62, 39.17 111.94 M47.92 88.52 C45.95 97.21, 41.12 103.93, 39.17 111.94" stroke="#ffd43b" stroke-width="4" fill="none"></path></g></g><mask></mask><g stroke-linecap="round"><g transform="translate(218.43368154024586 236.35312499999998) rotate(0 -19.871671938345116 -55.798200559199955)"><path d="M0 0 C-4.32 0.3, -13.23 0.05, -23.37 0 M0 0 C-8.16 -0.22, -17.44 -0.79, -23.37 0 M-23.37 0 C-33.01 0.7, -40.05 -4.51, -39.37 -16 M-23.37 0 C-34.35 -0.11, -39.86 -5.28, -39.37 -16 M-39.37 -16 C-40.31 -37.46, -39.15 -57.67, -39.37 -111.74 M-39.37 -16 C-39.16 -44.88, -39.36 -75.28, -39.37 -111.74" stroke="#ffd43b" stroke-width="4" fill="none"></path></g><g transform="translate(218.43368154024586 236.35312499999998) rotate(0 -19.871671938345116 -55.798200559199955)"><path d="M-30.79 -88.26 C-31.17 -94.12, -36.18 -100.56, -39.37 -111.74 M-30.79 -88.26 C-33.71 -96.95, -37.73 -105.87, -39.37 -111.74" stroke="#ffd43b" stroke-width="4" fill="none"></path></g><g transform="translate(218.43368154024586 236.35312499999998) rotate(0 -19.871671938345116 -55.798200559199955)"><path d="M-47.89 -88.24 C-43.76 -94.05, -44.26 -100.51, -39.37 -111.74 M-47.89 -88.24 C-44.73 -97.07, -42.67 -106, -39.37 -111.74" stroke="#ffd43b" stroke-width="4" fill="none"></path></g></g><mask></mask></svg>