<?xml version="1.0" standalone="no"?>
<!DOCTYPE svg PUBLIC "-//W3C//DTD SVG 1.1//EN" "http://www.w3.org/Graphics/SVG/1.1/DTD/svg11.dtd">
<svg version="1.1" xmlns="http://www.w3.org/2000/svg" viewBox="0 0 164.25390625 142.666015625" width="164.25390625" height="142.666015625"><!-- svg-source:excalidraw --><metadata></metadata><defs><style class="style-fonts">
      </style></defs><g stroke-linecap="round" transform="translate(59.154296875 10) rotate(0 23.7265625 23.685546875)"><path d="M27.63 0.22 C32.47 0.74, 37.7 4.53, 41.08 8.4 C44.45 12.28, 47.61 18.45, 47.86 23.45 C48.11 28.44, 45.75 34.43, 42.58 38.36 C39.41 42.3, 33.78 45.97, 28.83 47.05 C23.88 48.13, 17.45 47.26, 12.91 44.84 C8.37 42.43, 3.5 37.35, 1.59 32.57 C-0.32 27.79, -0.17 21.06, 1.45 16.19 C3.06 11.32, 6.92 6.02, 11.27 3.35 C15.63 0.67, 24.64 0.55, 27.59 0.14 C30.54 -0.26, 29.02 0.51, 28.98 0.91 M23.97 0.26 C29.01 0.01, 36.04 2.53, 39.86 5.8 C43.68 9.08, 46.13 14.94, 46.89 19.91 C47.65 24.87, 46.96 31.09, 44.42 35.58 C41.89 40.07, 36.62 45.13, 31.67 46.85 C26.72 48.56, 19.57 47.77, 14.74 45.9 C9.91 44.02, 5.2 40.14, 2.69 35.58 C0.19 31.02, -1.29 23.62, -0.26 18.52 C0.76 13.42, 4.8 8.06, 8.84 5 C12.89 1.95, 21.36 1.04, 24 0.19 C26.64 -0.66, 24.56 -0.55, 24.67 -0.08" stroke="none" stroke-width="0" fill="#ffec99"></path><path d="M19.29 0.05 C23.91 -1.2, 30.53 0.34, 35 2.85 C39.46 5.37, 44.28 10.5, 46.08 15.15 C47.87 19.8, 47.42 26.07, 45.79 30.77 C44.16 35.48, 40.5 40.65, 36.31 43.4 C32.11 46.16, 25.64 47.99, 20.61 47.3 C15.58 46.61, 9.55 43.05, 6.11 39.27 C2.67 35.49, 0.19 29.73, -0.01 24.61 C-0.22 19.5, 1.44 12.67, 4.87 8.59 C8.29 4.51, 17.81 1.48, 20.53 0.13 C23.25 -1.21, 21.27 0.16, 21.18 0.53 M21.89 -0.42 C26.57 -1.15, 33.55 1.16, 37.76 4.3 C41.97 7.43, 45.99 13.37, 47.13 18.38 C48.26 23.39, 46.92 29.8, 44.58 34.34 C42.23 38.89, 37.78 43.56, 33.07 45.68 C28.37 47.79, 21.17 48.58, 16.33 47.06 C11.48 45.53, 6.82 40.8, 4 36.53 C1.19 32.26, -1.16 26.36, -0.56 21.43 C0.03 16.51, 3.75 10.55, 7.58 7 C11.42 3.45, 19.98 1.25, 22.46 0.13 C24.94 -0.99, 22.43 -0.15, 22.49 0.3" stroke="#ffd43b" stroke-width="4" fill="none"></path></g><g stroke-linecap="round" transform="translate(106.66796875 78.392578125) rotate(0 23.79296875 23.767578125)"><path d="M24.23 -0.43 C29.23 -0.53, 35.96 2.72, 39.84 6.18 C43.72 9.64, 46.86 15.39, 47.51 20.31 C48.17 25.22, 46.38 31.31, 43.76 35.67 C41.13 40.02, 36.46 44.73, 31.77 46.44 C27.08 48.15, 20.37 47.84, 15.61 45.93 C10.86 44.03, 5.72 39.47, 3.24 35.03 C0.76 30.59, -0.13 24.33, 0.75 19.31 C1.63 14.29, 4.5 8.09, 8.51 4.9 C12.53 1.71, 22.07 0.91, 24.84 0.18 C27.61 -0.54, 25.2 0.17, 25.12 0.54 M22.4 -0.19 C27.19 -0.53, 33.52 2.64, 37.75 5.72 C41.99 8.79, 46.61 13.28, 47.79 18.28 C48.97 23.27, 47.24 31.06, 44.84 35.67 C42.44 40.28, 38.14 44.09, 33.4 45.92 C28.66 47.74, 21.41 48.18, 16.4 46.61 C11.4 45.05, 6.18 40.98, 3.39 36.54 C0.6 32.1, -1.16 25.1, -0.33 19.98 C0.5 14.85, 4.58 9.02, 8.37 5.78 C12.16 2.55, 19.96 1.41, 22.39 0.57 C24.83 -0.26, 22.87 0.57, 22.98 0.79" stroke="none" stroke-width="0" fill="#ffec99"></path><path d="M28.88 0.82 C33.58 1.65, 39.53 5.42, 42.59 9.47 C45.64 13.51, 47.53 19.96, 47.22 25.07 C46.92 30.19, 44.26 36.41, 40.75 40.14 C37.24 43.88, 31.13 46.9, 26.14 47.5 C21.15 48.1, 14.95 46.48, 10.79 43.73 C6.63 40.97, 2.62 35.88, 1.18 30.98 C-0.26 26.09, 0.24 19.15, 2.17 14.37 C4.09 9.58, 8.16 4.47, 12.71 2.27 C17.25 0.06, 26.49 1.3, 29.44 1.12 C32.39 0.93, 30.5 0.8, 30.4 1.16 M22.07 0.3 C26.78 -0.35, 33.68 1.01, 37.88 4.08 C42.09 7.16, 45.99 13.72, 47.28 18.77 C48.57 23.82, 47.84 29.84, 45.63 34.37 C43.42 38.89, 38.68 43.94, 34.05 45.93 C29.41 47.92, 22.8 47.74, 17.8 46.32 C12.8 44.89, 7 41.61, 4.03 37.37 C1.05 33.13, -0.59 26, -0.05 20.89 C0.5 15.77, 3.67 10.18, 7.29 6.71 C10.91 3.23, 19.24 1.17, 21.68 0.01 C24.12 -1.14, 21.79 -0.49, 21.93 -0.21" stroke="#ffd43b" stroke-width="4" fill="none"></path></g><g stroke-linecap="round" transform="translate(10 83.978515625) rotate(0 23.787109375 24.34375)"><path d="M27.77 0.12 C32.58 0.72, 39.05 5.06, 42.4 9.15 C45.75 13.23, 47.94 19.49, 47.88 24.62 C47.83 29.75, 45.37 35.97, 42.05 39.94 C38.73 43.9, 33.05 47.59, 27.94 48.41 C22.82 49.23, 15.74 47.49, 11.35 44.85 C6.95 42.21, 3.18 37.39, 1.57 32.54 C-0.05 27.7, -0.09 20.67, 1.64 15.76 C3.37 10.86, 7.41 5.69, 11.97 3.11 C16.53 0.54, 26.06 0.66, 29.02 0.3 C31.98 -0.07, 29.83 0.55, 29.73 0.92 M29.13 1.35 C33.92 2.27, 40.39 5.69, 43.45 9.76 C46.51 13.84, 47.92 20.59, 47.51 25.81 C47.1 31.03, 44.55 37.39, 40.99 41.09 C37.43 44.79, 31.11 47.46, 26.17 48.02 C21.24 48.59, 15.65 47.13, 11.36 44.47 C7.08 41.81, 2.06 36.95, 0.48 32.07 C-1.1 27.18, -0.21 20.16, 1.87 15.17 C3.94 10.18, 8.31 4.68, 12.94 2.15 C17.56 -0.39, 26.89 0.12, 29.62 -0.05 C32.35 -0.23, 29.41 0.55, 29.31 1.1" stroke="none" stroke-width="0" fill="#ffec99"></path><path d="M22.72 0.12 C27.53 -0.3, 34.01 2.16, 38.07 5.39 C42.14 8.62, 45.97 14.36, 47.11 19.51 C48.24 24.65, 47.26 31.68, 44.88 36.25 C42.49 40.82, 37.62 45.11, 32.8 46.93 C27.97 48.75, 20.88 48.73, 15.94 47.15 C11 45.57, 5.75 41.88, 3.16 37.45 C0.57 33.02, -0.35 25.74, 0.39 20.56 C1.13 15.38, 3.73 9.71, 7.61 6.35 C11.5 3, 20.93 1.42, 23.71 0.43 C26.5 -0.56, 24.28 0.08, 24.33 0.42 M20.4 0.45 C25.16 -0.71, 32.13 1.23, 36.54 3.83 C40.95 6.42, 45.27 11.08, 46.85 15.99 C48.44 20.91, 47.97 28.42, 46.04 33.29 C44.11 38.16, 39.71 42.71, 35.27 45.22 C30.82 47.73, 24.44 49.26, 19.38 48.34 C14.31 47.43, 8.16 43.91, 4.88 39.74 C1.61 35.57, -0.46 28.67, -0.29 23.33 C-0.12 18, 2.49 11.71, 5.92 7.75 C9.35 3.79, 17.96 0.86, 20.31 -0.4 C22.67 -1.67, 20.15 -0.37, 20.04 0.17" stroke="#ffd43b" stroke-width="4" fill="none"></path></g><g stroke-linecap="round"><g transform="translate(33.74604041529676 80.81153675573114) rotate(0 11.412469193380218 -21.001947140346545)"><path d="M0 0 C-0.34 -11.08, -0.49 -22.37, 0 -30.43 M0 0 C-0.34 -6.7, -0.09 -13.87, 0 -30.43 M0 -30.43 C-0.24 -37.81, 3.15 -42.14, 11.57 -42 M0 -30.43 C-0.54 -38.34, 3.31 -41.88, 11.57 -42 M11.57 -42 C15.93 -42.06, 20.06 -41.4, 23.14 -41.47 M11.57 -42 C15.15 -41.63, 18.91 -41.52, 23.14 -41.47" stroke="#ffd43b" stroke-width="4" fill="none"></path></g><g transform="translate(33.74604041529676 80.81153675573114) rotate(0 11.412469193380218 -21.001947140346545)"><path d="M12.2 -37.7 C16.13 -38.88, 20.14 -40.23, 23.14 -41.47 M12.2 -37.7 C14.53 -38.34, 17.25 -39.24, 23.14 -41.47" stroke="#ffd43b" stroke-width="4" fill="none"></path></g><g transform="translate(33.74604041529676 80.81153675573114) rotate(0 11.412469193380218 -21.001947140346545)"><path d="M12.33 -45.62 C16.22 -43.83, 20.19 -42.21, 23.14 -41.47 M12.33 -45.62 C14.61 -44.4, 17.3 -43.44, 23.14 -41.47" stroke="#ffd43b" stroke-width="4" fill="none"></path></g></g><mask></mask><g stroke-linecap="round"><g transform="translate(109.47489560705503 33.64152712836676) rotate(0 10.558133424417804 20.600856546714198)"><path d="M0 0 C4.26 -0.15, 8.46 -0.02, 10.47 -0.34 M0 0 C3.77 0.13, 6.82 -0.3, 10.47 -0.34 M10.47 -0.34 C17.13 0.24, 20.94 2.92, 20.94 10.13 M10.47 -0.34 C18.54 -1.18, 21.95 2.52, 20.94 10.13 M20.94 10.13 C19.86 17.61, 20.87 24.09, 20.94 41.66 M20.94 10.13 C21.01 18.16, 20.94 27.06, 20.94 41.66" stroke="#ffd43b" stroke-width="4" fill="none"></path></g><g transform="translate(109.47489560705503 33.64152712836676) rotate(0 10.558133424417804 20.600856546714198)"><path d="M13.78 21.92 C16.89 29.52, 19.97 37.63, 20.94 41.66 M13.78 21.92 C16.69 29.01, 18.16 35.08, 20.94 41.66" stroke="#ffd43b" stroke-width="4" fill="none"></path></g><g transform="translate(109.47489560705503 33.64152712836676) rotate(0 10.558133424417804 20.600856546714198)"><path d="M28.15 21.93 C25.71 29.55, 23.24 37.66, 20.94 41.66 M28.15 21.93 C26.2 28.98, 22.84 35.05, 20.94 41.66" stroke="#ffd43b" stroke-width="4" fill="none"></path></g></g><mask></mask><g stroke-linecap="round"><g transform="translate(103.79246949054209 102.11598404774219) rotate(0 -10.53687367508212 -20.65144792087392)"><path d="M0 0 C-2.28 0.17, -5.76 0.19, -10.47 0.34 M0 0 C-3.69 0.06, -7.66 0.02, -10.47 0.34 M-10.47 0.34 C-16.94 0.69, -21.3 -2.74, -20.95 -10.14 M-10.47 0.34 C-17.61 0.28, -21.2 -3.13, -20.95 -10.14 M-20.95 -10.14 C-21.31 -17.46, -20.73 -24.16, -20.95 -41.66 M-20.95 -10.14 C-20.97 -19.54, -21.07 -29.69, -20.95 -41.66" stroke="#ffd43b" stroke-width="4" fill="none"></path></g><g transform="translate(103.79246949054209 102.11598404774219) rotate(0 -10.53687367508212 -20.65144792087392)"><path d="M-13.88 -21.89 C-14.81 -26.94, -18.05 -32.28, -20.95 -41.66 M-13.88 -21.89 C-16.33 -29.1, -19.33 -36.41, -20.95 -41.66" stroke="#ffd43b" stroke-width="4" fill="none"></path></g><g transform="translate(103.79246949054209 102.11598404774219) rotate(0 -10.53687367508212 -20.65144792087392)"><path d="M-28.25 -21.97 C-25.39 -26.98, -24.83 -32.3, -20.95 -41.66 M-28.25 -21.97 C-25.59 -29.2, -23.48 -36.49, -20.95 -41.66" stroke="#ffd43b" stroke-width="4" fill="none"></path></g></g><mask></mask></svg>